<?xml version="1.0" encoding="UTF-8" standalone="no"?>
<!-- Generator: Adobe Illustrator 25.2.3, SVG Export Plug-In . SVG Version: 6.00 Build 0)  -->

<svg
   version="1.1"
   id="Layer_1"
   x="0px"
   y="0px"
   viewBox="0 0 140 140"
   xml:space="preserve"
   width="140"
   height="140"
   xmlns="http://www.w3.org/2000/svg"
   xmlns:svg="http://www.w3.org/2000/svg"><defs
   id="defs15"><rect
     x="23.446934"
     y="28.354429"
     width="95.014603"
     height="35.034081"
     id="rect250" /></defs>
<style
   type="text/css"
   id="style2">
	.st0{fill:#FFFFFF;}
</style>
<circle
   cx="8"
   cy="8"
   id="circle4"
   r="8"
   style="stroke-width:0.114286" />
<path
   class="st0"
   d="m 11.542857,7.8857143 c 0,0.8114286 -0.274286,1.5657143 -0.742857,2.1599997 -0.08,0.102857 -0.16,0.205715 -0.251429,0.297143 -0.262857,0.262857 -0.5599996,0.491429 -0.8914281,0.674286 -0.1028572,0.05714 -0.2057143,0.102857 -0.32,0.148571 C 8.9257143,11.337143 8.4685714,11.428571 8,11.428571 c -0.4571429,0 -0.8914286,-0.09143 -1.3028571,-0.251428 -0.022857,-0.01143 -0.034286,-0.03429 -0.022857,-0.05714 L 6.9714286,10.445714 7.04,10.274286 c 0.011429,-0.02286 0.034286,-0.03429 0.057143,-0.02286 0.2742857,0.102857 0.5828571,0.16 0.8914285,0.16 0.3314286,0 0.64,-0.05714 0.9257143,-0.171429 0.1142857,-0.04571 0.2171429,-0.09143 0.32,-0.148571 0.3428572,-0.1942861 0.64,-0.4685719 0.8571432,-0.7885719 0.08,-0.1257142 0.16,-0.2514285 0.217142,-0.3885714 0.137143,-0.3085714 0.217143,-0.6514286 0.217143,-1.0171428 0,-1.0742858 -0.6742853,-2 -1.6342853,-2.3657143 C 8.88,5.5314286 8.8685714,5.52 8.8685714,5.5085714 L 8.4114286,4.4342857 C 8.4,4.4 8.4228571,4.3771429 8.4571429,4.3771429 10.194286,4.6057143 11.542857,6.0914286 11.542857,7.8857143 Z"
   id="path6"
   style="stroke-width:0.114286" />
<path
   class="st0"
   d="m 10.72,10.731429 c -0.01143,-0.02286 -0.04571,-0.03429 -0.06857,-0.01143 -0.251429,0.228571 -0.525715,0.434286 -0.8342861,0.594286 0,0 -0.011429,0.01143 -0.022857,0.01143 l 0.034286,0.06857 c 0,0.01143 0.022857,0.02286 0.045714,0.02286 h 1.0742851 c 0.03429,0 0.05714,-0.03429 0.04572,-0.05714 z"
   id="path8"
   style="stroke-width:0.114286" />
<path
   class="st0"
   d="m 9.92,8.8571429 c 0,0.011429 0,0.022857 0,0.034286 -0.034286,0.057143 -0.068571,0.1257143 -0.1142857,0.1828571 -0.1714286,0.2514286 -0.4,0.48 -0.6514286,0.64 -0.022857,0.011429 -0.057143,0 -0.057143,-0.022857 l -0.2514286,-0.5942857 -0.6514286,-1.52 c -0.068571,-0.16 -0.3085714,-0.16 -0.3771428,0 l -0.6514286,1.52 L 6.88,9.76 6.7542857,10.057143 6.6628571,10.274286 v 0.01143 0.01143 l -0.3085714,0.697143 -0.057143,0.114285 -0.1142858,0.274286 c 0,0.01143 -0.022857,0.02286 -0.045714,0.02286 H 5.0628571 c -0.034286,0 -0.057143,-0.03429 -0.045714,-0.05714 L 5.4514286,10.331429 5.8971429,9.28 7.52,5.4857143 C 7.5314286,5.4514286 7.5085714,5.4171429 7.4628571,5.4285714 7.3485714,5.4514286 7.2342857,5.4857143 7.12,5.5314286 c -0.96,0.3542857 -1.6457143,1.28 -1.6457143,2.3657143 0,0.3542857 0.068571,0.6971428 0.2057143,0.9942857 0,0.011429 0,0.022857 0,0.034286 l -0.4457143,1.04 C 5.2228571,10 5.1771429,10 5.1542857,9.9771429 4.72,9.3942857 4.4571429,8.6628571 4.4571429,7.8857143 4.4571429,6.0571429 5.84,4.56 7.6114286,4.3657143 7.7371429,4.3428571 7.8742857,4.3428571 8,4.3428571 l 0.4457143,1.0514286 0.16,0.3885714 z"
   id="path10"
   style="stroke-width:0.114286" />
<path
   style="fill:#d40000;stroke-width:0.0155793"
   d="M 5.0286591,11.37809 C 5.0219345,11.357917 5.1821034,10.979555 6.5641985,7.7507303 7.1812774,6.3091222 7.5149389,5.511552 7.5157659,5.4761441 7.5170322,5.4219561 7.5166574,5.4216455 7.4547225,5.4262882 7.3520793,5.4339831 7.0306051,5.5505568 6.8393378,5.6494401 6.1496442,6.0060049 5.6805429,6.6278989 5.5128489,7.4079845 c -0.030178,0.1403852 -0.035172,0.2099793 -0.035213,0.4907497 -4.36e-5,0.2928507 0.00416,0.3467754 0.040072,0.5141187 0.022066,0.1028238 0.065948,0.2555658 0.097516,0.3394271 0.031568,0.083861 0.053575,0.1644841 0.048905,0.1791625 -0.00467,0.014678 -0.1061905,0.2545361 -0.2256006,0.533017 C 5.2738129,9.8485989 5.2144289,9.9718838 5.1924536,9.9753269 5.1274143,9.9855166 4.8113209,9.4338973 4.6809907,9.0827654 4.5993841,8.8629027 4.5252633,8.5573194 4.4941227,8.3123502 4.4584755,8.0319301 4.468713,7.5607159 4.5163093,7.2911392 4.6452367,6.5609163 4.9777731,5.9205869 5.4995131,5.3978902 6.068027,4.8283337 6.7620621,4.4879923 7.5793574,4.3779746 c 0.1028237,-0.013841 0.239249,-0.023048 0.3031674,-0.02046 l 0.116215,0.00471 0.072562,0.1713729 c 0.039909,0.094255 0.1654554,0.3922103 0.2789918,0.6621226 0.1135363,0.2699124 0.5105731,1.2035332 0.8823038,2.0747128 0.3717307,0.8711798 0.675874,1.5941361 0.675874,1.6065698 0,0.067675 -0.3150227,0.4718251 -0.4771379,0.612132 -0.1128017,0.097627 -0.2846798,0.224599 -0.3040327,0.224599 -0.00789,0 -0.018752,-0.012269 -0.024126,-0.027264 C 9.0811981,9.6251499 8.2200344,7.6138552 8.1927863,7.5602047 8.1765565,7.5282488 8.1426624,7.4914425 8.1174661,7.478413 8.0490813,7.4430498 7.94422,7.448173 7.8822974,7.4899029 7.8347525,7.5219433 7.7879983,7.6230838 7.358361,8.6233011 7.098908,9.2273211 6.8329638,9.8512176 6.7673738,10.009738 6.6587235,10.272327 6.4428238,10.77063 6.2425549,11.221033 L 6.1646232,11.3963 H 5.5996761 c -0.4171888,0 -0.5665347,-0.0048 -0.571017,-0.01821 z"
   id="path190" /><path
   style="fill:#d40000;stroke-width:0.0155793"
   d="m 7.7740993,11.411001 c -0.2289022,-0.01458 -0.521716,-0.06688 -0.7400194,-0.132192 -0.2621703,-0.07843 -0.342344,-0.109301 -0.3471071,-0.133636 -0.0024,-0.01225 0.068395,-0.18686 0.1573187,-0.388011 0.088924,-0.201152 0.1714847,-0.392904 0.1834683,-0.426115 0.011983,-0.03321 0.029984,-0.06353 0.040001,-0.06737 0.010017,-0.0038 0.073138,0.01089 0.1402698,0.03275 0.251548,0.0819 0.492517,0.118395 0.7814122,0.11833 0.3771402,-7.7e-5 0.6848231,-0.06249 1.0177851,-0.20642 C 9.7747698,9.8765395 10.32111,9.1982494 10.488218,8.3696632 10.538881,8.1184552 10.53829,7.6474858 10.48701,7.4079845 10.328554,6.6679109 9.8944362,6.0649281 9.2534688,5.6946133 9.170479,5.6466664 9.0532266,5.5875698 8.9929082,5.5632875 L 8.8832384,5.5191379 8.6476413,4.9652313 C 8.4989888,4.6157379 8.4175013,4.4058674 8.4268317,4.3965373 c 0.019853,-0.019853 0.2867709,0.025515 0.4963664,0.084368 1.1241209,0.3156474 2.0385689,1.1659337 2.4107359,2.2415871 0.148354,0.4287785 0.202351,0.7859128 0.190659,1.261005 -0.0081,0.3312599 -0.02564,0.4662692 -0.09903,0.7643114 -0.177387,0.7204624 -0.625053,1.4122662 -1.223958,1.8914492 -0.6997059,0.559834 -1.5433572,0.828044 -2.4275099,0.771743 z"
   id="path192" /><path
   style="fill:#d40000;stroke-width:0.0155793"
   d="m 9.8265289,11.370273 c -0.013127,-0.02881 -0.013818,-0.04332 -0.00224,-0.04718 0.035528,-0.01184 0.3296091,-0.196998 0.4460521,-0.280837 0.0673,-0.04846 0.186787,-0.142385 0.265519,-0.208723 0.0985,-0.083 0.148743,-0.115971 0.161088,-0.105726 0.03076,0.02553 0.290299,0.636128 0.280853,0.660743 -0.0077,0.02012 -0.0862,0.02333 -0.570631,0.02333 H 9.8454853 Z"
   id="path194" /><text
   xml:space="preserve"
   id="text248"
   style="white-space:pre;shape-inside:url(#rect250);fill:#ffffff"
   transform="scale(0.11428571)" /><text
   xml:space="preserve"
   style="font-size:1.37143px;fill:#ffffff;stroke-width:0.114286"
   x="3.0535538"
   y="12.198638"
   id="text308"><tspan
     id="tspan306"
     x="3.0535538"
     y="12.198638"
     style="stroke-width:0.114286">Data Extender</tspan></text></svg>
